# xmcd
#
# Track frame offsets:
# 150
# 17110
# 34358
# 54318
# 78578
# 92413
# 108853
# 120803
# 142738
# 156675
# 172083
#
# Disc length: 2538 seconds
#
#
# Revision: 0
# Processed by: cddbd v1.5.2PL0 Copyright (c) Steve Scherf et al.
# Submitted via: FreeRIP 2.944 
#
DISCID=8409e80b
DTITLE=Harry Connick Jr. - 20
DYEAR=1900
DGENRE=Blues
TTITLE0=Avalon
TTITLE1=Blue Skies
TTITLE2=Imagination
TTITLE3=Do You Know What it Means to Miss New Orleans
TTITLE4=Basin Street Blues
TTITLE5=Lazy River
TTITLE6=Please Don't Talk About Me When I'm Gone
TTITLE7=Stars Fell On Alabama
TTITLE8=S'wonderful
TTITLE9=If I Only Had A Brain
TTITLE10=Do Nothin' Till You Hear From Me
EXTD=
EXTT0=
EXTT1=
EXTT2=
EXTT3=
EXTT4=
EXTT5=
EXTT6=
EXTT7=
EXTT8=
EXTT9=
EXTT10=
PLAYORDER=
